PathFileType	4	(X/Y/Z)	S1_nor_med_right & left.trc
DataRate	CameraRate	NumFrames	NumMarkers	Units	OrigDataRate	OrigDataStartFrame	OrigNumFrames
250.00	250.00	20	18	mm	250.00	14694	16793
Frame#	Time	c7	r_should	l_should	clavicle	r_upa	r_elb_l	r_elb_m	r_low	r_wri_l	r_wri_m	r_met	l_upa	l_elb_l	l_elb_m	l_low	l_wri_l	l_wri_m	l_met
	X1	Y1	Z1	X2	Y2	Z2	X3	Y3	Z3	X4	Y4	Z4	X5	Y5	Z5	X6	Y6	Z6	X7	Y7	Z7	X8	Y8	Z8	X9	Y9	Z9	X10	Y10	Z10	X11	Y11	Z11	X12	Y12	Z12	X13	Y13	Z13	X14	Y14	Z14	X15	Y15	Z15	X16	Y16	Z16	X17	Y17	Z17	X18	Y18	Z18
14694	58.77200	911.14288	1418.60291	65.49336	986.19214	1357.24255	251.17984	962.25476	1338.40820	-121.36333	1046.98584	1297.90674	60.10241	989.29535	1144.55127	300.77689	1012.42841	1042.62402	308.10580	936.56470	1024.69385	237.97855	964.52423	914.01117	324.49057	1041.63245	822.04352	296.68863	974.00818	807.81421	316.15152	1077.26294	748.19977	314.41180	1020.03754	1130.84399	-139.95406	1038.17700	1087.47510	-146.30876	1036.00854	1038.64832	-45.40285	1135.48755	1128.27466	-85.77413	1135.74487	1232.84875	-101.81993	1170.64612	1211.98560	-41.41501	1186.11060	1289.70496	-113.32900
14695	58.77600	911.16931	1418.59180	65.47768	986.20349	1357.22546	251.15553	962.32330	1338.40601	-121.36197	1046.84058	1297.48035	59.64022	989.30261	1144.52588	300.73505	1012.43591	1042.62610	308.08551	936.62415	1024.66064	237.93303	964.58289	913.98553	324.45047	1041.70154	822.03381	296.63330	974.08362	807.79901	316.11209	1077.34863	748.19049	314.34439	1020.53632	1130.89612	-140.12090	1038.57617	1087.64307	-146.17055	1036.31946	1038.80835	-45.23461	1135.41870	1129.03931	-85.46959	1134.96545	1233.61975	-101.60201	1169.96436	1213.02625	-41.15106	1184.88391	1290.83472	-113.09772
14696	58.78000	911.19653	1418.57971	65.45617	986.21533	1357.21301	251.13776	962.38953	1338.40869	-121.36509	1046.81567	1297.36633	59.50996	989.30817	1144.50842	300.70300	1012.45544	1042.62634	308.05652	936.67493	1024.63623	237.89149	964.63965	913.95990	324.40805	1041.76794	822.02484	296.57898	974.16040	807.77942	316.07315	1077.43335	748.18243	314.27576	1021.23975	1130.85229	-140.52779	1038.97107	1087.81396	-146.05229	1036.65247	1039.00073	-45.03324	1135.34863	1129.81775	-85.14936	1134.20203	1234.36523	-101.37214	1169.27087	1214.05786	-40.88367	1183.65234	1291.93579	-112.84425
14697	58.78400	911.22101	1418.57056	65.42384	986.21497	1357.19531	251.11958	962.46033	1338.41150	-121.36935	1046.82190	1297.32971	59.45779	989.31995	1144.49524	300.67719	1012.48920	1042.61499	308.02866	936.71643	1024.61597	237.84192	964.69379	913.93384	324.36636	1041.83679	822.01697	296.52209	974.23492	807.76031	316.03418	1077.51013	748.17804	314.21484	1021.62445	1130.96606	-140.53894	1039.35840	1087.96716	-145.93541	1036.97815	1039.17371	-44.82966	1135.26550	1130.57202	-84.83578	1133.42566	1235.10095	-101.12778	1168.56409	1215.05981	-40.61129	1182.41309	1293.02271	-112.60467
14698	58.78800	911.24835	1418.56030	65.41085	986.21021	1357.17712	251.09583	962.52679	1338.39893	-121.37258	1046.83691	1297.31299	59.43571	989.32684	1144.47668	300.65033	1012.53186	1042.60156	307.99725	936.75311	1024.60352	237.80554	964.74579	913.90918	324.32324	1041.90149	822.01105	296.46188	974.30688	807.74304	315.99326	1077.58313	748.18182	314.15244	1021.92340	1131.14087	-140.45805	1039.71594	1088.12378	-145.82715	1037.34265	1039.35559	-44.57994	1135.16907	1131.30359	-84.52852	1132.64246	1235.81116	-100.89234	1167.86877	1216.04724	-40.35026	1181.17517	1294.05566	-112.34038
14699	58.79200	911.26874	1418.54370	65.39680	986.21429	1357.16223	251.07047	962.59637	1338.38879	-121.37582	1046.85889	1297.30505	59.43235	989.34680	1144.47205	300.63644	1012.57715	1042.60010	307.96805	936.78632	1024.58386	237.77803	964.79938	913.88232	324.27859	1041.96863	822.01025	296.40610	974.38202	807.72931	315.95016	1077.66565	748.18048	314.08008	1022.19031	1131.33887	-140.36086	1040.05579	1088.28198	-145.70544	1037.73047	1039.55005	-44.30886	1135.04749	1132.03394	-84.20962	1131.85535	1236.50122	-100.66147	1167.16748	1217.02771	-40.08654	1179.93652	1295.08118	-112.09436
14700	58.79600	911.29169	1418.53516	65.38302	986.21344	1357.15039	251.05652	962.66693	1338.38037	-121.37724	1046.88110	1297.29431	59.42312	989.36053	1144.45715	300.59259	1012.62189	1042.59216	307.93317	936.81793	1024.56628	237.73521	964.85443	913.85754	324.22717	1042.04114	822.00800	296.34915	974.45581	807.71252	315.90421	1077.74402	748.17767	314.01294	1022.44708	1131.53333	-140.26321	1040.39001	1088.42493	-145.57281	1038.12793	1039.73218	-44.02945	1134.93494	1132.76147	-83.88673	1131.07043	1237.18469	-100.43880	1166.45154	1217.99207	-39.81860	1178.69543	1296.05884	-111.87511
14701	58.80000	911.31268	1418.53687	65.35853	986.21240	1357.13171	251.04616	962.73956	1338.36841	-121.38407	1046.90015	1297.27930	59.41619	989.37354	1144.43860	300.55347	1012.67041	1042.57458	307.89465	936.85504	1024.55078	237.68976	964.90601	913.83459	324.17966	1042.11353	822.00378	296.29245	974.52509	807.68988	315.85782	1077.83337	748.17847	313.93283	1022.70844	1131.71558	-140.15379	1040.71362	1088.56982	-145.42767	1038.48962	1039.87524	-43.74386	1134.85315	1133.46094	-83.55621	1130.29749	1237.83325	-100.20803	1165.75012	1218.93701	-39.53382	1177.46338	1297.05115	-111.62643
14702	58.80400	911.33356	1418.53638	65.33720	986.21564	1357.11499	251.02705	962.81622	1338.34839	-121.39146	1046.91199	1297.27173	59.40116	989.39594	1144.42712	300.54160	1012.71820	1042.55847	307.85272	936.89679	1024.53784	237.64473	964.95770	913.81189	324.12982	1042.18347	821.99878	296.24170	974.59460	807.66699	315.81180	1077.91394	748.17218	313.86905	1022.96387	1131.86938	-140.02219	1041.04028	1088.70862	-145.27309	1038.78613	1040.01099	-43.49171	1134.73413	1134.14075	-83.21291	1129.51904	1238.45984	-99.97632	1165.04028	1219.85559	-39.25732	1176.24780	1297.99963	-111.38618
14703	58.80800	911.35126	1418.53210	65.31631	986.21753	1357.09924	251.01376	962.89337	1338.31982	-121.39618	1046.92566	1297.26868	59.39274	989.41943	1144.40198	300.51453	1012.76562	1042.54480	307.80939	936.92157	1024.52649	237.60637	965.01086	913.78986	324.08072	1042.24902	821.99072	296.18973	974.66345	807.65063	315.76526	1077.99438	748.16925	313.80399	1023.21149	1132.00208	-139.87079	1041.37292	1088.82361	-145.07373	1039.07605	1040.15088	-43.23403	1134.60486	1134.81714	-82.88318	1128.74060	1239.07715	-99.74870	1164.33655	1220.75024	-38.99367	1175.01953	1298.94568	-111.16018
14704	58.81200	911.37213	1418.53027	65.29726	986.21423	1357.08191	251.00240	962.96417	1338.28479	-121.40055	1046.93665	1297.26086	59.39100	989.43329	1144.38196	300.48782	1012.80286	1042.51794	307.77704	936.94843	1024.51685	237.57585	965.06049	913.76331	324.03619	1042.30664	821.98047	296.13342	974.72638	807.63092	315.71988	1078.07642	748.16608	313.73264	1023.45477	1132.12769	-139.72507	1041.68848	1088.91907	-144.87488	1039.36890	1040.29297	-42.96070	1134.47681	1135.47876	-82.56112	1127.95703	1239.67078	-99.51215	1163.61890	1221.61963	-38.73899	1173.77686	1299.82996	-110.94029
14705	58.81600	911.38995	1418.52539	65.27096	986.20490	1357.06055	250.99001	963.03900	1338.25586	-121.40432	1046.95044	1297.25134	59.39513	989.44312	1144.36633	300.46841	1012.82513	1042.49402	307.73386	936.96796	1024.50854	237.54599	965.10370	913.73865	323.99121	1042.35913	821.96503	296.07404	974.78735	807.61566	315.68054	1078.14526	748.16534	313.67017	1023.64624	1132.17773	-139.44536	1041.98743	1089.00342	-144.67348	1039.68640	1040.43835	-42.65754	1134.34534	1136.11499	-82.24651	1127.16919	1240.25159	-99.27939	1162.90186	1222.47327	-38.48582	1172.54724	1300.72778	-110.71744
14706	58.82000	911.40582	1418.51379	65.25545	986.19611	1357.04456	250.96944	963.10944	1338.22717	-121.41405	1046.96619	1297.23743	59.41106	989.45099	1144.34741	300.44025	1012.83789	1042.46777	307.68893	936.98730	1024.48792	237.51944	965.14929	913.71729	323.94916	1042.40637	821.95258	296.01718	974.84790	807.60211	315.64328	1078.20679	748.15527	313.60318	1023.79224	1132.11169	-139.00247	1042.26672	1089.09229	-144.47540	1040.03345	1040.60913	-42.31254	1134.18567	1136.73279	-81.91727	1126.37708	1240.82056	-99.06642	1162.19971	1223.31152	-38.21341	1171.32227	1301.57654	-110.51945
14707	58.82400	911.41522	1418.50024	65.24102	986.18683	1357.03381	250.95442	963.17755	1338.20129	-121.42352	1046.98108	1297.22339	59.42213	989.45789	1144.32458	300.41873	1012.84930	1042.45093	307.64902	937.01190	1024.48291	237.48245	965.19342	913.70087	323.90991	1042.45117	821.93585	295.95920	974.90356	807.58704	315.59830	1078.27112	748.15179	313.52734	1024.03345	1132.13220	-138.80498	1042.53223	1089.16687	-144.29308	1040.37476	1040.76648	-41.94728	1134.02441	1137.35059	-81.58369	1125.57532	1241.38953	-98.84773	1161.50159	1224.11780	-37.96503	1170.09668	1302.41724	-110.34702
14708	58.82800	911.42517	1418.48792	65.21961	986.17072	1357.02490	250.94771	963.24652	1338.17737	-121.43050	1046.99402	1297.20972	59.43327	989.46381	1144.31165	300.39685	1012.85150	1042.43738	307.61005	937.03046	1024.48022	237.44925	965.23969	913.68286	323.87198	1042.49792	821.92236	295.89999	974.96008	807.56866	315.55219	1078.33887	748.15558	313.44589	1024.29822	1132.15698	-138.65710	1042.80127	1089.24316	-144.10837	1040.68298	1040.91431	-41.60489	1133.85010	1137.95605	-81.24622	1124.79797	1241.95239	-98.62525	1160.79553	1224.92725	-37.72123	1168.90662	1303.23889	-110.13869
14709	58.83200	911.43738	1418.47461	65.19678	986.15942	1357.01196	250.93491	963.31409	1338.14380	-121.42998	1047.01099	1297.20142	59.44963	989.46326	1144.29810	300.37469	1012.85052	1042.41895	307.57666	937.05536	1024.46631	237.42403	965.28223	913.66333	323.83194	1042.54272	821.91241	295.83701	975.02167	807.55200	315.50848	1078.41162	748.15747	313.37494	1024.56628	1132.18750	-138.51450	1043.06580	1089.31421	-143.92349	1040.98999	1041.05750	-41.27538	1133.68750	1138.54968	-80.89964	1124.03870	1242.47510	-98.40240	1160.12720	1225.71704	-37.47136	1167.71362	1304.03503	-109.92301
14710	58.83600	911.45105	1418.47314	65.17110	986.15076	1356.99585	250.92410	963.37701	1338.10950	-121.42674	1047.02380	1297.19434	59.47217	989.46729	1144.28088	300.35632	1012.85101	1042.39783	307.54984	937.07239	1024.45605	237.38954	965.32080	913.64093	323.79193	1042.58594	821.90558	295.78128	975.07727	807.53784	315.46802	1078.47351	748.14807	313.29901	1024.82385	1132.22595	-138.37608	1043.32300	1089.37720	-143.73799	1041.29102	1041.17480	-40.95825	1133.52490	1139.13538	-80.55570	1123.27917	1242.98645	-98.19950	1159.44299	1226.49292	-37.23520	1166.50586	1304.82043	-109.73072
14711	58.84000	911.46222	1418.47632	65.15253	986.13629	1356.97998	250.91844	963.44269	1338.08240	-121.42244	1047.02930	1297.19226	59.48592	989.47327	1144.26282	300.33350	1012.85480	1042.38269	307.52136	937.08746	1024.44714	237.36475	965.35681	913.62109	323.74982	1042.63135	821.89600	295.72485	975.12970	807.52325	315.42786	1078.53333	748.14844	313.22531	1025.07202	1132.26147	-138.23430	1043.58069	1089.43555	-143.55249	1041.55212	1041.28528	-40.67250	1133.35828	1139.71643	-80.22421	1122.51025	1243.51904	-97.99770	1158.74890	1227.26770	-37.00241	1165.29932	1305.57166	-109.53700
14712	58.84400	911.46722	1418.47278	65.14301	986.12439	1356.96899	250.91380	963.50891	1338.05127	-121.41348	1047.03564	1297.19104	59.50288	989.47205	1144.25208	300.31549	1012.86456	1042.37512	307.49106	937.09808	1024.42908	237.34398	965.38922	913.60040	323.70926	1042.67578	821.88544	295.66513	975.17920	807.50635	315.38617	1078.58887	748.14636	313.15762	1025.32495	1132.29602	-138.09001	1043.84619	1089.48767	-143.35464	1041.80786	1041.40039	-40.36494	1133.18335	1140.27563	-79.90546	1121.75488	1244.00342	-97.79092	1158.06531	1228.00500	-36.77244	1164.12085	1306.32874	-109.33379
14713	58.84800	911.47253	1418.47437	65.13313	986.11212	1356.95032	250.90683	963.57190	1338.01440	-121.40694	1047.03955	1297.18665	59.52029	989.47760	1144.23987	300.30035	1012.87531	1042.36621	307.46756	937.10895	1024.41833	237.31477	965.41620	913.57849	323.66687	1042.72168	821.87177	295.59863	975.22784	807.48761	315.34213	1078.64929	748.14551	313.08347	1025.58447	1132.33472	-137.93456	1044.10120	1089.53638	-143.15123	1042.06897	1041.53503	-40.05000	1132.99585	1140.81213	-79.58411	1121.01892	1244.43005	-97.59037	1157.37817	1228.74670	-36.51908	1162.92676	1307.03235	-109.15658
